PathFileType	4	(X/Y/Z)	path1_02_0-549.trc
DataRate	CameraRate	NumFrames	NumMarkers	Units	OrigDataRate	OrigDataStartFrame	OrigNumFrames
30	30	7	22	m	30	274	549
Frame#	Time	Hip			RHip			RKnee			RAnkle			RBigToe			RSmallToe			RHeel			LHip			LKnee			LAnkle			LBigToe			LSmallToe			LHeel			Neck			Head			Nose			RShoulder			RElbow			RWrist			LShoulder			LElbow			LWrist		
		X1	Y1	Z1	X2	Y2	Z2	X3	Y3	Z3	X4	Y4	Z4	X5	Y5	Z5	X6	Y6	Z6	X7	Y7	Z7	X8	Y8	Z8	X9	Y9	Z9	X10	Y10	Z10	X11	Y11	Z11	X12	Y12	Z12	X13	Y13	Z13	X14	Y14	Z14	X15	Y15	Z15	X16	Y16	Z16	X17	Y17	Z17	X18	Y18	Z18	X19	Y19	Z19	X20	Y20	Z20	X21	Y21	Z21	X22	Y22	Z22
275	9.166666666666666	2.6060701767639163	0.835606969564049	0.21236427492594484	2.6056527091160535	0.800120335714696	0.1306782599162107	2.6171281575219507	0.45126836808137305	0.15581373321874917	2.655341279954952	0.09914225307833513	0.15283891202016925	2.470169792571145	0.028573194921143717	0.13391944812058923	2.503966193776437	0.023137744761206083	0.07628546025005499	2.6990013071318253	0.03341780284931025	0.1550127948501659	2.603245453589625	0.7984573962238151	0.2881847671120816	2.6180994021871857	0.440344089013172	0.2705823479091164	2.6626156200960356	0.10043218823839259	0.2979416612204241	2.472393887085252	0.02136141472390628	0.2989701475895013	2.513563191816867	0.021798726375475728	0.345644736598653	2.709176176714052	0.03127988877928258	0.28452823264070026	2.5760726167352392	1.4685959831913724	0.22973393013663868	2.5524269564505064	1.703815219787586	0.23165553356591098	2.4397937252561466	1.6046629642249581	0.22386263612341756	2.6157414023145047	1.362274491448107	0.05773398925472336	2.5748979396687286	1.067078589079582	-0.001104263989491071	2.4938532797244575	0.8443747937800297	0.02158755682376835	2.608879205511577	1.3443929398150467	0.3578184520515372	2.5783338328191516	1.0680594692502348	0.41954976169857655	2.5033666579589706	0.8440711155664112	0.4036588558095275
276	9.2	2.6054720864524272	0.8354359940577698	0.2123882440410329	2.605423010404033	0.7994464728688626	0.13083963126308784	2.617292826837905	0.4506824987335098	0.15618632289383025	2.654801610256861	0.0997446666158672	0.15175216395156274	2.4711114136640515	0.02810039430380493	0.13461880088296624	2.5054705697274953	0.022781861535338524	0.07575599380685567	2.6990436696188	0.03353975860582244	0.1554386132757267	2.6028489277270856	0.7979534823442684	0.28788579418521903	2.61818764685425	0.4400541637967092	0.2701951531669152	2.6620967912651	0.10055547511921055	0.2966812376110054	2.472535652199912	0.02179538756138376	0.29907978574646343	2.5137219496162233	0.02175351293882444	0.3455948566678102	2.708578791695248	0.0321631249544501	0.2840717275840215	2.575802472660973	1.4687296035337731	0.2288164002257893	2.5525894481558162	1.7036698164947817	0.23192271531326533	2.439633137017137	1.6045595748922057	0.22242553135113763	2.615647847540233	1.3618650569131854	0.05745327837679708	2.574803406985554	1.0669810695716537	-0.0014814735307521324	2.49380073938317	0.8446422697891909	0.02114312484651637	2.6086471953644876	1.3442090531217077	0.35745079546484226	2.577846491297745	1.0678728958695227	0.4192323242323547	2.502898671588842	0.8443535534411698	0.40328113273264754
277	9.233333333333333	2.604934907623628	0.8353362117782447	0.21250550416681918	2.6052928350219466	0.7987372909901617	0.13113158057797344	2.617521051342264	0.44998189106992553	0.15668307926838632	2.654209371230355	0.10038675088091875	0.15067336912028242	2.4722979429156036	0.0274344313582548	0.1354756754869631	2.5068132873471014	0.02243192031961148	0.0751211761184055	2.698385390621402	0.03372955225031535	0.1554300608664213	2.6023566624477272	0.7975106171805272	0.28768833693035484	2.6180505818953272	0.4398889907398712	0.26972405959574713	2.661435034788793	0.10061334311923871	0.2949415808108167	2.472654914197481	0.02226695440181764	0.2990559075759159	2.513738567301664	0.021097806376810167	0.3455588421300517	2.7075146123277682	0.032865483682109405	0.2828877073251824	2.5755239464383197	1.4688995373595333	0.22789049119325833	2.5529539418860945	1.7033568328130932	0.23270150959800556	2.439554801811036	1.6045327828014824	0.2213073227106179	2.615483217005063	1.3614591683167687	0.05717573366367065	2.574576180046659	1.0668932748559732	-0.0020118620541201954	2.493860704847757	0.8449933989201611	0.020664294008348405	2.608313183021901	1.3439790675539907	0.3569682739513951	2.5772673957419343	1.0678045398132576	0.41890534073595775	2.502553354584097	0.8447066656366797	0.402997251962448
278	9.266666666666667	2.6045879834082806	0.8353084189571828	0.21264851712566635	2.6053227617207524	0.7981184932342604	0.1314623440965585	2.617808056032896	0.4493388865550633	0.15717172649852024	2.6536742321876337	0.10087391891823065	0.1500904632769213	2.4736222501131953	0.026675314196677218	0.1365249239880799	2.507609348477947	0.022167952458566342	0.07448450746142475	2.6971087474447253	0.03393972142443107	0.15497627813700834	2.6019055636613264	0.7972019991293083	0.28757305008124434	2.617694959750213	0.43987209746283723	0.2692740321600797	2.6608025921712484	0.10051174559675356	0.2929197502051668	2.472808062807976	0.02261434485616832	0.2989269566412094	2.5136770878404024	0.019447920945519344	0.3456517594719832	2.7063820276063484	0.033303632659280005	0.2815344400680122	2.5752555352941324	1.4690862263860212	0.2270685456747456	2.553417080743121	1.7028843829608502	0.23375428796568704	2.439519928362325	1.6046094209739228	0.22072013068440244	2.615240600925459	1.3611569072165437	0.056936704500210676	2.5742543727719434	1.0668593255468755	-0.002588272136120235	2.4939951879231614	0.8453763857698816	0.020264892109360347	2.6079264222516185	1.3437581671574848	0.3565153882725769	2.5767366399075824	1.0679247777006746	0.41868916823367164	2.502365653034751	0.8450289891510406	0.4027830168801466
279	9.3	2.6043980745414355	0.8353007357212119	0.21271573590137594	2.6054361356256184	0.7976852848703124	0.13171976619435796	2.6180518206557277	0.4488596391758074	0.157471880002251	2.653329273787359	0.10107824021716404	0.15029643428319509	2.474838718601975	0.025989912712383142	0.1375585975059197	2.507848769095416	0.02199709773792439	0.0739750307948478	2.6956617953945954	0.03407521607935488	0.1543256337715357	2.601634750889049	0.7969633585327992	0.2874252245838599	2.6173349313404377	0.4399360017041545	0.268922672628025	2.6603494147962756	0.10024097084553767	0.2908637772066308	2.473002404527824	0.022784042600216495	0.29881812945779723	2.5137027010727784	0.017310619182491157	0.3458590885970225	2.705887599296418	0.033383988067751516	0.28068018920421967	2.574987871583477	1.469280554317326	0.2264331892642599	2.553756029244944	1.702408869825325	0.23469417004405788	2.4394582140209464	1.6048380693786868	0.2209443418952407	2.6149741071350854	1.3609946228736918	0.05669251013695442	2.5739817428470446	1.066915187634575	-0.0030679760416148566	2.4941764938609765	0.8457377790130937	0.019995702198581218	2.6075626664489113	1.3435891247066394	0.3562116395954112	2.5763666415162265	1.0682011802016529	0.418648740685255	2.5022963555937423	0.8452116920756844	0.40256489092413994
280	9.333333333333334	2.604265619008178	0.8352804855356162	0.21266645060700673	2.605487701686365	0.7974730032200148	0.13183231985620208	2.618142738087271	0.4485583531419074	0.1574862052153944	2.6532512507923567	0.10099264563251556	0.15108661547573088	2.47571167286556	0.025470708937909696	0.13830263570237758	2.50780051667994	0.021875446379598488	0.07363884169290678	2.694575650164881	0.034054864477532136	0.15377374546064754	2.6015856513592204	0.7967346986466934	0.28715236389725457	2.617224652094221	0.44002207989472786	0.2687146695249652	2.66020012550173	0.09992803589227509	0.2892504857356714	2.4731823491707314	0.022852881670853822	0.2988434828544441	2.5139476732513804	0.015816011242093204	0.3460341583979193	2.706505805459245	0.03311563216370793	0.2807055337500789	2.5747060745604786	1.469465410558134	0.22600916611667154	2.553840827542627	1.7020345262212637	0.23532131191830355	2.4393199715911384	1.6052090372477332	0.22205859009793194	2.6147708586528604	1.3609408316323646	0.05640201957344196	2.5738614060084415	1.0670576674276862	-0.0033667296126837823	2.4943629596847345	0.8460556476818465	0.01979904713882743	2.6072508027144616	1.34351625205409	0.3560747569400231	2.576173482963476	1.0685195387162636	0.41876462489950395	2.5022614001939867	0.8452067189966879	0.4022806874031465
281	9.366666666666667	2.604158869578188	0.8352408986921297	0.2125417535328772	2.605398965113979	0.7974519890401596	0.13180455902876806	2.618060195936459	0.4483906584029657	0.15726153630671677	2.653449750194517	0.10068321905562826	0.1520179649339274	2.476109717544922	0.02511895405718228	0.13864342840677088	2.507681550709426	0.021751487990443363	0.07345164171658763	2.6941307134999795	0.03386427054442566	0.15346477439621722	2.6017082050600604	0.7965337902218561	0.2867698057535906	2.617469106812508	0.4401184971704244	0.2686683826574996	2.66042594921894	0.09976244703667947	0.28879771481808925	2.4733042799197644	0.02291902699780827	0.29901513928286505	2.5143631445526147	0.015795953841310176	0.3460185774091037	2.7080233425876843	0.03261689571350021	0.2814422180359384	2.574424134322384	1.469623272167743	0.22580454261178504	2.553591845308779	1.7017857873280477	0.23555195808532642	2.439099139969322	1.6056146860274667	0.22378528909460801	2.614680262299936	1.3609523307857616	0.05612910274609536	2.5738819885145974	1.0672402474774532	-0.0034932405901270526	2.494493253717912	0.8463213013184109	0.019613731878854925	2.6069804149451414	1.3435840283222782	0.3560527395667527	2.576094421498078	1.0687554684195788	0.418953009798045	2.502186546401741	0.8450513617623215	0.40194334657842695
